<?xml version="1.0" encoding="iso-8859-1"?>
<!-- Generator: Adobe Illustrator 19.0.0, SVG Export Plug-In . SVG Version: 6.00 Build 0)  -->
<svg version="1.1" id="Capa_1" xmlns="http://www.w3.org/2000/svg" xmlns:xlink="http://www.w3.org/1999/xlink" x="0px" y="0px"
	 viewBox="0 0 512.125 512.125" style="enable-background:new 0 0 512.125 512.125;" xml:space="preserve">
<g transform="matrix(1.25 0 0 -1.25 0 45)">
	<g>
		<path style="fill:#F5F8FA;" d="M409.6-168.85c0-113.1-91.7-204.8-204.8-204.8S0-281.95,0-168.85s91.7,204.8,204.8,204.8
			S409.6-55.75,409.6-168.85"/>
		<g>
			<path style="fill:#CCD6DD;" d="M216.2-77.85v79.7c0,6.3-5.1,11.4-11.4,11.4s-11.4-5.1-11.4-11.4v-79.6c0-6.3,5.1-11.4,11.4-11.4
				S216.2-84.15,216.2-77.85z"/>
			<path style="fill:#CCD6DD;" d="M133.3-118.15l-91.5,28.9c-6,1.9-12.4-1.4-14.3-7.4s1.4-12.4,7.4-14.3l91.5-28.9
				c1.1-0.4,2.3-0.5,3.4-0.5c4.8,0,9.3,3.1,10.8,8C142.6-126.45,139.3-120.05,133.3-118.15z"/>
			<path style="fill:#CCD6DD;" d="M358.6-92.55l-76.8-22.3c-6-1.8-9.5-8.1-7.8-14.1c1.4-5,6-8.2,10.9-8.2c1,0,2.1,0.1,3.2,0.5
				l76.8,22.3c6,1.7,9.5,8.1,7.8,14.1C370.9-94.25,364.6-90.75,358.6-92.55z"/>
			<path style="fill:#CCD6DD;" d="M307.7-307.25c2.4,0,4.7,0.7,6.8,2.3c5,3.7,6.1,10.9,2.3,15.9l-62.1,83.4
				c-3.7,5-10.9,6.1-15.9,2.3c-5-3.7-6.1-10.9-2.3-15.9l62.1-83.4C300.8-305.65,304.2-307.25,307.7-307.25z"/>
			<path style="fill:#CCD6DD;" d="M93.1-304.35c2-1.4,4.2-2,6.5-2c3.6,0,7.1,1.7,9.4,4.9l58.3,83.9c3.6,5.2,2.3,12.2-2.8,15.8
				c-5.2,3.6-12.3,2.3-15.8-2.9l-58.3-83.9C86.6-293.65,87.9-300.75,93.1-304.35z"/>
		</g>
	</g>
	<g>
		<g>
			<path style="fill:#CCD6DD;" d="M39.799-271.912c-5,0-9.6,3.3-11,8.4l-24.8,91.7c-1.6,6.1,1.9,12.3,8,14c6.1,1.6,12.3-1.9,14-8
				l24.9-91.7c1.6-6.1-1.9-12.3-8-14C41.799-271.812,40.799-271.912,39.799-271.912"/>
			<path style="fill:#CCD6DD;" d="M250.3-350.85H147.9c-6.3,0-11.4,5.1-11.4,11.4s5.1,11.4,11.4,11.4h102.4
				c6.3,0,11.4-5.1,11.4-11.4S256.6-350.85,250.3-350.85"/>
			<path style="fill:#CCD6DD;" d="M365.53-272.675c-0.9,0-1.8,0.1-2.7,0.3c-6.1,1.5-9.8,7.7-8.3,13.8l24.2,98.1
				c1.5,6.1,7.7,9.8,13.8,8.3c6.1-1.5,9.8-7.7,8.3-13.8l-24.2-98.1C375.23-269.175,370.63-272.675,365.53-272.675"/>
			<path style="fill:#CCD6DD;" d="M344.91-51.537c-1.9,0-3.9,0.5-5.7,1.5l-86.1,49.8c-5.4,3.2-7.3,10.1-4.1,15.6
				c3.1,5.4,10.1,7.3,15.5,4.2l86.1-49.8c5.4-3.2,7.3-10.1,4.1-15.6C352.61-49.437,348.81-51.537,344.91-51.537"/>
			<path style="fill:#CCD6DD;" d="M62.601-51.537c-3.5,0-7,1.6-9.3,4.7c-3.7,5.1-2.5,12.2,2.6,15.9l70.4,50.5
				c5.1,3.7,12.2,2.5,15.9-2.6s2.5-12.2-2.6-15.9l-70.4-50.5C67.201-50.837,64.901-51.537,62.601-51.537"/>
		</g>
		<g>
			<path style="fill:#292F33;" d="M261.1-229.35l33.2,98.6c1.6,4.8-0.1,10-4.2,12.9l-82,57.8c-4,2.8-9.3,2.8-13.2-0.1l-81.5-58.8
				c-3.9-2.8-5.6-7.8-4.3-12.4l28.4-97.6c1.4-4.9,5.9-8.2,10.9-8.2h101.9C255.2-237.15,259.5-234.05,261.1-229.35z"/>
			<path style="fill:#292F33;" d="M14.7-186.35c0.7,0,1.3,0.1,2,0.2c3.3,0.6,6.3,2.7,7.9,5.6l38.4,68.2c0.6,1,1,2.2,1.2,3.3
				l15.2,74.4c0.7,3.3-0.2,6.8-2.3,9.5c-2.2,2.7-5.4,4.2-8.8,4.2h-5.1C24.2-58.25,0-110.75,0-168.85c0-2.9,0.1-5.8,0.2-8.7l7.1-6.1
				C9.4-185.45,12-186.35,14.7-186.35z"/>
			<path style="fill:#292F33;" d="M127,20.65c-2.1-3.8-4.1-7.6-6-10.9c-1.3-2.4-1.4-5.4-0.2-7.9c1.2-2.5,3.6-4.2,6.3-4.7l72.5-11.8
				c0.5-0.1,0.9-0.1,1.4-0.1s0.9,0,1.4,0.1l69.2,11.4c2.3,0.4,4.3,1.7,5.6,3.6c1.3,1.9,1.8,4.3,1.3,6.5l-3.4,16.7
				c-22,8-45.7,12.4-70.4,12.4C177.2,35.95,151,30.45,127,20.65z"/>
			<path style="fill:#292F33;" d="M337.1-28.05c-2.6,0.1-5.2-0.9-6.9-2.8c-1.7-2-2.5-4.6-2-7.2l13.3-70.5c0.2-1,0.5-1.7,1.1-2.5
				c17-28.5,35.9-60.3,38.5-65.8c0.3-1,0.7-0.9,1.3-1.7c1.6-2.2,4.2-1.6,7-1.6h0.1c2.3,0,3.6-1.1,20.2,8.6c0,0.9,0,1.8,0,2.7
				c0,54-20.9,103.1-55.1,139.7L337.1-28.05z"/>
			<path style="fill:#292F33;" d="M112.1-280.75c-0.7,0.8-1.5,1.4-2.4,1.9c-67,34.9-68.2,35.3-69,35.6c-0.9,0.3-1.8,0.4-2.7,0.4
				c-6.1,0-7.9-0.7-13.5-23.1c25.4-47.2,68.8-83.3,121.1-99l17.1,15.2c1.7,1.5,2.7,3.6,2.9,5.9c0.1,2.3-0.7,4.5-2.2,6.2
				L112.1-280.75z"/>
			<path style="fill:#292F33;" d="M381.2-272.95l-8.2,21.7c-0.8,2.2-2.5,3.9-4.7,4.9c-2.2,0.9-4.6,0.9-6.7-0.1l-69.2-30.3
				c-1.2-0.5-2.3-1.3-3.1-2.3l-48.4-57.8c-1.5-1.8-2.2-4-2-6.3s1.3-4.4,3.1-5.8c7.8-6.4,14.5-11.8,20.2-16.5
				C312.7-350.75,355-317.15,381.2-272.95z"/>
		</g>
	</g>
</g>
<g>
</g>
<g>
</g>
<g>
</g>
<g>
</g>
<g>
</g>
<g>
</g>
<g>
</g>
<g>
</g>
<g>
</g>
<g>
</g>
<g>
</g>
<g>
</g>
<g>
</g>
<g>
</g>
<g>
</g>
</svg>
